# xmcd
#
# Track frame offsets: 
#        150
#        12757
#        26070
#        39184
#        50222
#        72969
#        83591
#        93471
#        112555
#        127954
#        157035
#        171453
#        182325
#
# Disc length: 2587 seconds
#
# Revision: 0
# Processed by: cddbd v1.5.1PL2 Copyright (c) Steve Scherf et al.
# Submitted via: ExactAudioCopy v0.95a5
#
DISCID=9a0a190d
DTITLE=Creedence - Willy And The Poorboys
DYEAR=1969
DGENRE=Country
TTITLE0=Down On The Corner
TTITLE1=It Came Out Of The Sky
TTITLE2=Cotton Fields
TTITLE3=Poorboy Shuffle
TTITLE4=Feelin' Blue
TTITLE5=Fortunate Son
TTITLE6=Don't Look Now (It Ain't You Or Me)
TTITLE7=The Midnight Special
TTITLE8=Side O' The Road
TTITLE9=Effigy
TTITLE10=It Came Out Of The Sky (live)
TTITLE11=Fortunate Son (live)
TTITLE12=Up Around The Bend (live)
EXTD=
EXTT0=
EXTT1=
EXTT2=
EXTT3=
EXTT4=
EXTT5=
EXTT6=
EXTT7=
EXTT8=
EXTT9=
EXTT10=
EXTT11=
EXTT12=
PLAYORDER=
